# xmcd
#
# Track frame offsets:
#   150
#   12622
#   27422
#   41931
#   55022
#   70668
#   85393
#   98066
#   110107
#   125094
#   140832
#   155292
#   169232
#   193338
#   208196
#   222853
#   236280
#   247655
#   262487
#   275401
#   288323
#   302189
#   314373
#   328464
#   343958
#
# Disc length: 4763 seconds
#
# Revision: 0
# Processed by: cddbd v1.5.2PL0 Copyright (c) Steve Scherf et al.
# Submitted via: uFREEDB ActiveX Control 1.5
#
DISCID=95129919
DTITLE=Gusttavo Lima - Inventor dos amores
DYEAR=2010
DGENRE=Sertanejo universitario
TTITLE0=Minha mulher nao deixa nao_part Reginho
TTITLE1=Caso consumado
TTITLE2=Calafrio
TTITLE3=Me deixe em paz
TTITLE4=Coracao - Revelecao
TTITLE5=Super homem_part Edson
TTITLE6=Cor de ouro
TTITLE7=Arrasta
TTITLE8=Rosas, versos e ninhos
TTITLE9=Larguei de ser besta
TTITLE10=Refem
TTITLE11=Tornado
TTITLE12=Acustico
TTITLE13=O nosso amor nasceu
TTITLE14=Inventor dos amores_part Jorge e Mateus
TTITLE15=E sempre assim
TTITLE16=O nosso amor venceu
TTITLE17=Eu te quero sim_part Maria Cecilia e Rodolfo
TTITLE18=Pode ir embora
TTITLE19=O mundo e uma bola
TTITLE20=Eu volto pra voce
TTITLE21=Furacao_part Humberto e Ronaldo
TTITLE22=Se nao quer me amar_Coca Cola
TTITLE23=Invertor dos amores_Remix_Part Jorge e Mateus
TTITLE24=Quem tem sorte e solteiro
EXTD=
EXTT0=
EXTT1=
EXTT2=
EXTT3=
EXTT4=
EXTT5=
EXTT6=
EXTT7=
EXTT8=
EXTT9=
EXTT10=
EXTT11=
EXTT12=
EXTT13=
EXTT14=
EXTT15=
EXTT16=
EXTT17=
EXTT18=
EXTT19=
EXTT20=
EXTT21=
EXTT22=
EXTT23=
EXTT24=
PLAYORDER=
